# xmcd
#
# Track frame offsets:
#	150
#	21002
#	35097
#	49872
#	65400
#	79497
#	93097
#	105552
#	119635
#	134992
#	155217
#	172159
#	183732
#
# Disc length: 2678 seconds
#
# Revision: 1
# Processed by: cddbd v1.5.1PL0 Copyright (c) Steve Scherf et al.
# Submitted via: CDex 1.50Beta5
#
DISCID=c50a740d
DTITLE=マンハッタンズ - 涙の口づけ
DYEAR=2003
DGENRE=
TTITLE0=恋の青い鳥
TTITLE1=今夜も一緒に
TTITLE2=愛はいつも悩むもの
TTITLE3=リーズンズ
TTITLE4=君にとっては……
TTITLE5=ハート
TTITLE6=素晴らしき愛の世界
TTITLE7=愛してくれたら
TTITLE8=星空にラララ
TTITLE9=涙の口づけ
TTITLE10=愛はいつも悩むもの(インストゥルメンタル・ヴァージョン)
TTITLE11=インタビュー・ウィズ・マンハッタンズ
TTITLE12=恋の青い鳥(別ミックス)
EXTD=
EXTT0=
EXTT1=
EXTT2=
EXTT3=
EXTT4=
EXTT5=
EXTT6=
EXTT7=
EXTT8=
EXTT9=
EXTT10=
EXTT11=
EXTT12=
PLAYORDER=
